<mxfile host="app.diagrams.net" modified="2022-02-21T18:28:40.132Z" agent="5.0 (Macintosh; Intel Mac OS X 10_15_7) AppleWebKit/605.1.15 (KHTML, like Gecko) Version/15.1 Safari/605.1.15" etag="OtE9_iNeXQZE4imhUyDH" version="16.6.1" type="github">
  <diagram id="AzK2zOcHoBmcdGs5wbvp" name="use cases diagram">
    <mxGraphModel dx="1412" dy="967" grid="1" gridSize="10" guides="1" tooltips="1" connect="1" arrows="1" fold="1" page="1" pageScale="1" pageWidth="827" pageHeight="1169" math="0" shadow="0">
      <root>
        <mxCell id="0" />
        <mxCell id="1" parent="0" />
        <mxCell id="UuEV44z2zga0xMd8Tojf-1" value="" style="rounded=0;whiteSpace=wrap;html=1;rotation=-90;fillColor=none;" vertex="1" parent="1">
          <mxGeometry x="179.04" y="956.69" width="938.35" height="461.78" as="geometry" />
        </mxCell>
        <mxCell id="UuEV44z2zga0xMd8Tojf-2" value="&lt;font style=&quot;font-size: 18px&quot;&gt;View Product Similarity&lt;br&gt;&lt;/font&gt;" style="ellipse;whiteSpace=wrap;html=1;labelBackgroundColor=none;fillColor=#FFFFFF;strokeColor=#36393d;" vertex="1" parent="1">
          <mxGeometry x="575" y="840" width="160" height="80" as="geometry" />
        </mxCell>
        <mxCell id="UuEV44z2zga0xMd8Tojf-3" style="edgeStyle=none;rounded=0;orthogonalLoop=1;jettySize=auto;html=1;endArrow=none;endFill=0;" edge="1" parent="1" source="UuEV44z2zga0xMd8Tojf-4" target="UuEV44z2zga0xMd8Tojf-22">
          <mxGeometry relative="1" as="geometry" />
        </mxCell>
        <mxCell id="UuEV44z2zga0xMd8Tojf-4" value="&lt;font size=&quot;4&quot;&gt;View Report&lt;/font&gt;" style="ellipse;whiteSpace=wrap;html=1;fillColor=#FFFFFF;strokeColor=#36393d;" vertex="1" parent="1">
          <mxGeometry x="580" y="1020" width="160" height="80" as="geometry" />
        </mxCell>
        <mxCell id="UuEV44z2zga0xMd8Tojf-5" style="edgeStyle=none;rounded=0;orthogonalLoop=1;jettySize=auto;html=1;endArrow=none;endFill=0;" edge="1" parent="1" source="UuEV44z2zga0xMd8Tojf-8" target="UuEV44z2zga0xMd8Tojf-22">
          <mxGeometry relative="1" as="geometry" />
        </mxCell>
        <mxCell id="UuEV44z2zga0xMd8Tojf-8" value="&lt;font style=&quot;font-size: 18px&quot;&gt;Create Report&lt;/font&gt;" style="ellipse;whiteSpace=wrap;html=1;fillColor=#FFFFFF;strokeColor=#36393d;" vertex="1" parent="1">
          <mxGeometry x="575" y="1140" width="160" height="82.5" as="geometry" />
        </mxCell>
        <mxCell id="UuEV44z2zga0xMd8Tojf-10" style="edgeStyle=none;rounded=0;orthogonalLoop=1;jettySize=auto;html=1;endArrow=none;endFill=0;" edge="1" parent="1" source="UuEV44z2zga0xMd8Tojf-11" target="UuEV44z2zga0xMd8Tojf-22">
          <mxGeometry relative="1" as="geometry">
            <mxPoint x="250" y="1180" as="targetPoint" />
          </mxGeometry>
        </mxCell>
        <mxCell id="UuEV44z2zga0xMd8Tojf-11" value="&lt;font style=&quot;font-size: 18px&quot;&gt;View Sales Performance&lt;/font&gt;" style="ellipse;whiteSpace=wrap;html=1;fillColor=#FFFFFF;strokeColor=#36393d;" vertex="1" parent="1">
          <mxGeometry x="570" y="1260" width="170" height="90" as="geometry" />
        </mxCell>
        <mxCell id="UuEV44z2zga0xMd8Tojf-20" value="&lt;font style=&quot;font-size: 20px&quot;&gt;Reporting and Product Analytics&lt;br&gt;Use Cases Diagram&lt;br&gt;&lt;/font&gt;" style="text;html=1;strokeColor=none;fillColor=none;align=center;verticalAlign=middle;whiteSpace=wrap;rounded=0;labelBackgroundColor=none;fontSize=18;" vertex="1" parent="1">
          <mxGeometry x="480" y="750" width="350" height="30" as="geometry" />
        </mxCell>
        <mxCell id="UuEV44z2zga0xMd8Tojf-25" style="edgeStyle=none;rounded=0;orthogonalLoop=1;jettySize=auto;html=1;endArrow=none;endFill=0;" edge="1" parent="1" source="UuEV44z2zga0xMd8Tojf-21" target="UuEV44z2zga0xMd8Tojf-2">
          <mxGeometry relative="1" as="geometry" />
        </mxCell>
        <mxCell id="UuEV44z2zga0xMd8Tojf-21" value="Customer" style="shape=umlActor;verticalLabelPosition=bottom;verticalAlign=top;html=1;outlineConnect=0;labelBackgroundColor=none;fontSize=20;fillColor=none;" vertex="1" parent="1">
          <mxGeometry x="250" y="820" width="60" height="120" as="geometry" />
        </mxCell>
        <mxCell id="UuEV44z2zga0xMd8Tojf-24" style="rounded=0;orthogonalLoop=1;jettySize=auto;html=1;entryX=0;entryY=0.5;entryDx=0;entryDy=0;endArrow=none;endFill=0;" edge="1" parent="1" source="UuEV44z2zga0xMd8Tojf-22" target="UuEV44z2zga0xMd8Tojf-23">
          <mxGeometry relative="1" as="geometry" />
        </mxCell>
        <mxCell id="UuEV44z2zga0xMd8Tojf-27" style="edgeStyle=none;rounded=0;orthogonalLoop=1;jettySize=auto;html=1;endArrow=none;endFill=0;" edge="1" parent="1" source="UuEV44z2zga0xMd8Tojf-22" target="UuEV44z2zga0xMd8Tojf-26">
          <mxGeometry relative="1" as="geometry" />
        </mxCell>
        <mxCell id="UuEV44z2zga0xMd8Tojf-22" value="Manager" style="shape=umlActor;verticalLabelPosition=bottom;verticalAlign=top;html=1;outlineConnect=0;labelBackgroundColor=none;fontSize=20;fillColor=none;" vertex="1" parent="1">
          <mxGeometry x="250" y="1210" width="60" height="120" as="geometry" />
        </mxCell>
        <mxCell id="UuEV44z2zga0xMd8Tojf-23" value="&lt;font style=&quot;font-size: 18px&quot;&gt;View Product Popularity&lt;/font&gt;" style="ellipse;whiteSpace=wrap;html=1;fillColor=#FFFFFF;strokeColor=#36393d;" vertex="1" parent="1">
          <mxGeometry x="568.59" y="1390" width="170" height="90" as="geometry" />
        </mxCell>
        <mxCell id="UuEV44z2zga0xMd8Tojf-26" value="&lt;font style=&quot;font-size: 18px&quot;&gt;View Order Breakdown&lt;/font&gt;" style="ellipse;whiteSpace=wrap;html=1;fillColor=#FFFFFF;strokeColor=#36393d;" vertex="1" parent="1">
          <mxGeometry x="570" y="1520" width="170" height="90" as="geometry" />
        </mxCell>
      </root>
    </mxGraphModel>
  </diagram>
</mxfile>
